<svg width="96" height="40" viewBox="0 0 96 40" fill="none" xmlns="http://www.w3.org/2000/svg">
<path fill-rule="evenodd" clip-rule="evenodd" d="M94.7129 28.0834C94.1058 28.091 93.6063 27.6132 93.5986 27.0093C93.5909 26.4054 94.0712 25.9085 94.6783 25.9008C95.2854 25.8932 95.7849 26.371 95.7925 26.9749V26.994C95.7925 27.5865 95.3161 28.0757 94.7129 28.0834ZM94.7126 25.7097C93.998 25.7097 93.4255 26.2831 93.4255 26.9902C93.4255 27.6973 94.0018 28.2706 94.7126 28.2706C95.4235 28.2706 95.9998 27.6973 95.9998 26.9902C96.0075 26.2869 95.4273 25.7097 94.7126 25.7097ZM71.8317 20.3318C71.8816 21.3218 71.7049 22.3079 71.3322 23.2253C70.9172 24.0203 70.2333 24.6395 69.4072 24.9873C68.4543 25.3657 67.4322 25.5416 66.4063 25.5072C65.438 25.5607 64.4659 25.488 63.5207 25.2969C62.1644 25.0752 61.0885 24.0356 60.8273 22.694C60.4661 21.295 60.931 19.8158 62.0222 18.864C63.1634 18.1378 64.5197 17.8091 65.8722 17.9276H71.8009C71.847 18.7303 71.8317 19.5368 71.7625 20.3394L71.8317 20.3318ZM42.9644 11.9801C44.1824 9.32364 47.2447 8.03935 50.0074 9.02932C51.2868 9.50328 52.3358 10.4474 52.9314 11.6743C53.477 12.9128 53.7536 14.2467 53.7382 15.5998H42.1921C42.2343 14.3614 42.4956 13.1344 42.9644 11.9801ZM74.7018 11.0437C74.3368 9.49946 73.3686 8.15784 72.0084 7.32841C70.2332 6.38431 68.2391 5.92945 66.2334 6.02501C63.7551 5.84536 61.3114 6.64804 59.4401 8.26868C59.3249 8.38335 58.4181 9.26248 58.518 9.36185L59.175 9.95813L60.6543 11.315C61.5304 10.0002 62.9328 9.1287 64.5043 8.92229C66.2487 8.60887 68.0469 8.81909 69.6646 9.53386C70.8096 10.218 71.5319 11.4221 71.5896 12.7522V15.6801H65.7031C64.3276 15.6266 62.952 15.8177 61.6418 16.2343C59.7898 17.0828 58.1952 18.4053 57.0195 20.0642C56.0166 21.4402 54.887 22.7207 53.6536 23.8941C52.8237 24.6165 51.8477 25.144 50.7872 25.446C49.7844 25.6868 48.7508 25.7441 47.7288 25.618C46.2418 25.4995 44.8662 24.8115 43.8788 23.703C42.9028 22.4111 42.3534 20.8554 42.2996 19.2424V18.1913H57.0233V16.5859C57.2462 13.3141 55.9974 10.1187 53.6152 7.85588C51.0869 5.96768 47.7633 5.48607 44.8009 6.59071C41.9538 7.82148 39.9442 10.4168 39.4716 13.4632C39.0835 15.3934 38.999 17.3657 39.2219 19.3189C39.364 20.9777 39.8405 22.5946 40.6282 24.0661C42.0767 26.5124 44.6703 28.0681 47.5174 28.2018C49.5154 28.4617 51.5481 28.1942 53.4039 27.4183C55.2904 26.3404 56.9234 24.8612 58.176 23.0915C58.2913 24.6586 59.0252 26.1187 60.2125 27.1507C61.3114 27.8387 62.5716 28.2362 63.8703 28.3012C65.4073 28.477 66.9672 28.3891 68.4696 28.0336C69.726 27.6667 70.8595 26.9672 71.7625 26.0231V27.9916H74.9554V15.9247C75.0707 14.2735 74.9862 12.6146 74.7057 10.9863L74.7018 11.0437ZM87.5775 15.7719L84.0771 15.4661C81.326 15.2367 80.2271 14.1436 80.2271 12.2898C80.2271 10.0881 81.8985 8.7083 85.0992 8.7083C87.1625 8.63186 89.1951 9.23578 90.8742 10.4283L93.0489 8.26492C90.7551 6.65574 87.9886 5.86836 85.1875 6.02889C80.5307 6.02889 77.1648 8.42163 77.1648 12.3853C77.1648 15.9248 79.4164 17.8435 83.7313 18.2066L87.3316 18.5124C89.8521 18.7227 90.9702 19.7929 90.9702 21.6887C90.9702 24.2535 88.7571 25.5187 85.1952 25.5187C82.6439 25.7021 80.1387 24.7848 78.306 23.0112L76.1888 25.1364C78.6133 27.3648 81.8639 28.5 85.1568 28.2783C90.4285 28.2783 94.0287 25.8474 94.0287 21.6543C94.0287 17.4613 91.4275 16.135 87.5775 15.7719ZM14.1087 20.3318C14.2816 21.7078 13.882 23.0914 12.9944 24.1617C11.6265 25.2587 9.86289 25.7403 8.12232 25.5033C4.65655 25.5033 3.10041 24.3146 3.10041 21.788C3.10041 19.2615 4.69881 17.9581 7.99168 17.9581H14.1125V20.3318H14.1087ZM8.664 6.02877C5.00611 6.02877 2.88899 6.73972 0.848722 9.24713L3.02347 11.1621C4.25302 9.39237 6.38166 8.45974 8.52183 8.75023C12.5063 8.75023 14.1009 10.3403 14.1009 13.5204V15.6074H7.54588C2.65845 15.6036 0.00341123 18.0689 0.00341123 21.8606C-0.0503813 23.4889 0.533651 25.079 1.64024 26.283C3.31549 27.7928 5.57862 28.4923 7.81869 28.1979C10.1663 28.4196 12.4833 27.5596 14.1124 25.8625V27.938H17.3054V13.2643C17.3054 8.53236 14.4352 6.02877 8.664 6.02877ZM28.2174 25.0791C23.4645 25.0791 22.7729 21.0198 22.7729 16.9606C22.7729 12.9013 23.4837 8.83826 28.2174 8.83826C32.955 8.83826 33.6274 12.8975 33.6274 16.9568C33.6274 21.016 32.8782 25.0982 28.1252 25.0982L28.2174 25.0791ZM33.6853 8.83824C32.2598 6.87359 29.8968 5.80718 27.4684 6.02887C25.5088 5.97154 23.603 6.65572 22.1353 7.94383C19.9605 10.1072 19.4764 13.4594 19.4764 16.9988C19.4764 20.5382 19.9567 23.8712 22.1353 26.0385C23.5761 27.3304 25.4666 28.0184 27.4069 27.9534C29.793 28.1101 32.0984 27.0514 33.5277 25.1402V28.5497C33.5277 32.2649 31.7564 35.2157 27.5414 35.2157C25.5626 35.2998 23.6415 34.5048 22.3043 33.0523L20.2064 35.0781C22.1391 37.0657 24.8403 38.1321 27.6144 37.9869C32.4019 38.2353 36.4863 34.5736 36.7361 29.811C36.7553 29.4326 36.7476 29.0581 36.7246 28.6796V6.34994H33.6814V8.83824H33.6853Z" fill="#646464"/>
<path fill-rule="evenodd" clip-rule="evenodd" d="M94.5613 26.9558V26.4589H94.8554C95.0068 26.4589 95.1286 26.5697 95.1286 26.7073C95.1286 26.8449 95.0068 26.9558 94.8554 26.9558H94.5613ZM95.3641 26.7073C95.3556 26.4703 95.1413 26.2869 94.8808 26.2869H94.3555V27.7011H94.5656V27.1278H94.7967L95.154 27.682H95.3641L94.9816 27.0857C95.1917 27.0628 95.3515 26.8984 95.3641 26.7073Z" fill="#646464"/>
</svg>
