<svg xmlns="http://www.w3.org/2000/svg" viewBox="0 0 144.3 48"><g><g id="Layer_1"><path id="Path_5139" d="M0,40.2h138.7v7.8H0v-7.8ZM7.8,8.5h23.7V.7H0v31.5h7.8V8.5ZM27.2,22.3h-15.4v-7.8h15.4v7.8ZM84.5,32.1h-7.8V.7h7.8v31.5ZM103.8,32.1h-15.4v-7.8h15.4v7.8ZM116.4,32.1h-7.8V.7h14v7.8h-6.2v23.7ZM126.9,32.1h-6.6v-7.8h6.6c2.7-.1,5.1-1.7,6.2-4.1,2.3-6.3-1.3-11.7-6.6-11.7V.7c10.3,0,17.9,10.2,14.1,21.7-1.8,5.4-8.1,9.8-13.8,9.8h0ZM56.9,11.2L68.1,0l5.5,5.5-11.2,11.2-5.5-5.5ZM50.2,32.1v-11l-15.6-15.6L40.1,0l17.9,17.9v14.3h-7.8ZM142.2,4.8c1.2,0,2.1-.9,2.1-2.1,0-1.2-.9-2.1-2.1-2.1-1.2,0-2.1.9-2.1,2.1,0,1.1.8,2,1.8,2.1,0,0,.2,0,.3,0h0ZM142.2,4.4c-.9,0-1.7-.7-1.7-1.7,0-.9.7-1.7,1.7-1.7.9,0,1.7.7,1.7,1.7h0c0,.9-.6,1.6-1.4,1.7,0,0-.2,0-.3,0h0ZM141.4,3.8h.4v-.7h.3l.3.5c0,.1.2.2.4.2h.2v-.4h-.1c0,0-.2,0-.2-.1l-.2-.3c.3,0,.5-.4.5-.7,0-.4-.3-.7-.7-.7,0,0,0,0-.1,0h-.8v2.1ZM141.9,2.8v-.7h.3c.3,0,.4.2.4.4s-.1.4-.4.4h-.3Z"></path></g></g></svg>