<svg xmlns="http://www.w3.org/2000/svg" xmlns:xlink="http://www.w3.org/1999/xlink" width="170" height="26.869" viewBox="0 0 170 26.869">
  <defs>
    <linearGradient id="linear-gradient" x1="-0.113" y1="0.711" x2="1.196" y2="0.289" gradientUnits="objectBoundingBox">
      <stop offset="0" stop-color="#0cb351"/>
      <stop offset="1" stop-color="#00ff5f"/>
    </linearGradient>
    <linearGradient id="linear-gradient-2" x1="1.113" y1="0.711" x2="-0.196" y2="0.289" xlink:href="#linear-gradient"/>
  </defs>
  <g id="Grupo_24950" data-name="Grupo 24950" transform="translate(1410.365 22297)">
    <g id="Grupo_23241" data-name="Grupo 23241" transform="translate(-1383.32 -22294.537)">
      <g id="Grupo_23240" data-name="Grupo 23240" transform="translate(0 0)">
        <path id="Caminho_15156" data-name="Caminho 15156" d="M98.244,598.911h-1.52a.654.654,0,0,0-.654.654v5.071a6.488,6.488,0,0,0-1.221-.779,6.587,6.587,0,0,0-2.9-.646,6.464,6.464,0,0,0-4.778,2.032,6.794,6.794,0,0,0-1.977,4.908,6.688,6.688,0,0,0,1.991,4.857,6.54,6.54,0,0,0,4.808,2.019,7.406,7.406,0,0,0,2.993-.614h0a7.52,7.52,0,0,0,2.576-1.928.627.627,0,0,0,.073-.1,8.882,8.882,0,0,0,1.261-3.459.684.684,0,0,0,0-.081V599.565A.654.654,0,0,0,98.244,598.911ZM95,613.058a3.85,3.85,0,0,1-2.878,1.195,3.92,3.92,0,0,1-2.041-.545,4.009,4.009,0,0,1-1.484-1.523,4.125,4.125,0,0,1-.555-2.088A4.205,4.205,0,0,1,88.6,608a3.968,3.968,0,0,1,1.5-1.545,3.876,3.876,0,0,1,2-.546,4.115,4.115,0,0,1,2.068.551,3.748,3.748,0,0,1,1.486,1.474,4.3,4.3,0,0,1,.525,2.12A4.074,4.074,0,0,1,95,613.058Z" transform="translate(-85.191 -598.911)" fill="#4d4d4d"/>
        <path id="Caminho_15157" data-name="Caminho 15157" d="M134.5,611.137a6.325,6.325,0,0,0-5.237,2.508,7.17,7.17,0,0,0,.268,9.175,6.33,6.33,0,0,0,5.045,2.133,7.269,7.269,0,0,0,2.589-.439,6.55,6.55,0,0,0,2.086-1.284,7.366,7.366,0,0,0,1.6-2.2.655.655,0,0,0-.278-.868l-1.281-.684a.654.654,0,0,0-.868.239,6.579,6.579,0,0,1-1.177,1.537,4.109,4.109,0,0,1-1.26.723,4.385,4.385,0,0,1-1.542.279,3.554,3.554,0,0,1-2.688-1.13,4,4,0,0,1-1.09-2.307h9.989a.654.654,0,0,0,.654-.657,7.035,7.035,0,0,0-1.444-4.462A6.518,6.518,0,0,0,134.5,611.137Zm-3.453,5.06a3.775,3.775,0,0,1,.894-1.324,3.687,3.687,0,0,1,2.571-.962,4.128,4.128,0,0,1,1.754.39,3.626,3.626,0,0,1,1.318,1,3.585,3.585,0,0,1,.507.9Z" transform="translate(-112.773 -606.837)" fill="#4d4d4d"/>
        <path id="Caminho_15158" data-name="Caminho 15158" d="M179.94,613.166a.654.654,0,0,0-.55-.3H177.75a.653.653,0,0,0-.6.383l-3.36,7.365-3.388-7.367a.653.653,0,0,0-.594-.38h-1.628a.654.654,0,0,0-.594.927l5.483,11.911a.654.654,0,0,0,.594.381h.271a.654.654,0,0,0,.595-.382l5.451-11.911A.654.654,0,0,0,179.94,613.166Z" transform="translate(-138.575 -607.958)" fill="#4d4d4d"/>
      </g>
      <path id="Caminho_15159" data-name="Caminho 15159" d="M251.228,613a5.913,5.913,0,0,1,4.56,1.987,6.238,6.238,0,0,1,1.64,4.311,6.173,6.173,0,0,1-1.737,4.348,6.285,6.285,0,0,1-8.93,0,6.391,6.391,0,0,1-.092-8.648A5.9,5.9,0,0,1,251.228,613Zm0,1.5a4.393,4.393,0,0,0-3.268,1.411,4.722,4.722,0,0,0-1.368,3.409,4.894,4.894,0,0,0,.624,2.416,4.373,4.373,0,0,0,1.689,1.726,4.81,4.81,0,0,0,4.663,0,4.355,4.355,0,0,0,1.678-1.726,4.934,4.934,0,0,0,.619-2.416,4.722,4.722,0,0,0-1.368-3.409A4.4,4.4,0,0,0,251.228,614.494Z" transform="translate(-188.819 -608.043)" fill="#848484"/>
      <path id="Caminho_15160" data-name="Caminho 15160" d="M287.634,601.573h1.542v16.514h-1.542Z" transform="translate(-216.441 -600.637)" fill="#848484"/>
      <path id="Caminho_15161" data-name="Caminho 15161" d="M305.6,613a5.914,5.914,0,0,1,4.56,1.987,6.238,6.238,0,0,1,1.639,4.311,6.172,6.172,0,0,1-1.737,4.348,6.285,6.285,0,0,1-8.93,0,6.391,6.391,0,0,1-.092-8.648A5.9,5.9,0,0,1,305.6,613Zm0,1.5a4.393,4.393,0,0,0-3.268,1.411,4.721,4.721,0,0,0-1.368,3.409,4.893,4.893,0,0,0,.624,2.416,4.378,4.378,0,0,0,1.689,1.726,4.811,4.811,0,0,0,4.663,0,4.354,4.354,0,0,0,1.677-1.726,4.934,4.934,0,0,0,.619-2.416,4.721,4.721,0,0,0-1.368-3.409A4.394,4.394,0,0,0,305.6,614.494Z" transform="translate(-224.068 -608.043)" fill="#848484"/>
      <path id="Caminho_15162" data-name="Caminho 15162" d="M353.344,622.789a11.048,11.048,0,0,1-.445,3.67,4.735,4.735,0,0,1-2.09,2.525,6.9,6.9,0,0,1-3.578.884,8.179,8.179,0,0,1-2.758-.434,5.592,5.592,0,0,1-1.987-1.162,6.766,6.766,0,0,1-1.412-2.128h1.661a4.4,4.4,0,0,0,1.754,1.748,5.666,5.666,0,0,0,2.665.564,5.482,5.482,0,0,0,2.644-.586,3.571,3.571,0,0,0,1.536-1.466,6.585,6.585,0,0,0,.456-2.855v-.608a5.723,5.723,0,0,1-2.112,1.683,6.258,6.258,0,0,1-5.733-.228,5.747,5.747,0,0,1-2.237-2.2,6.188,6.188,0,0,1,5.358-9.2,6.89,6.89,0,0,1,2.443.413,8.837,8.837,0,0,1,2.182,1.292,6.252,6.252,0,0,1,1.672,3.355Q353.344,618.382,353.344,622.789Zm-6.08-8.317a4.828,4.828,0,0,0-2.416.63,4.576,4.576,0,0,0-1.748,1.737,4.743,4.743,0,0,0-.635,2.4,4.342,4.342,0,0,0,1.313,3.247,5.178,5.178,0,0,0,6.808.011,4.5,4.5,0,0,0,1.281-3.344,4.814,4.814,0,0,0-.591-2.4,4.329,4.329,0,0,0-1.672-1.666A4.656,4.656,0,0,0,347.264,614.473Z" transform="translate(-250.989 -608.043)" fill="#848484"/>
      <path id="Caminho_15163" data-name="Caminho 15163" d="M381.86,613.861h1.618l4.093,9.174,3.973-9.174h1.639l-7.112,16.253h-1.618l2.291-5.244Z" transform="translate(-277.53 -608.604)" fill="#848484"/>
      <path id="Caminho_15164" data-name="Caminho 15164" d="M213.644,613.83h-1.125a4.648,4.648,0,0,0-4.648,4.648v7.177a.254.254,0,0,0,.254.254h1.029a.254.254,0,0,0,.254-.254v-7.127a3.277,3.277,0,0,1,3.277-3.278h.793a3.278,3.278,0,0,1,3.278,3.278v7.127a.254.254,0,0,0,.254.254h1.029a.254.254,0,0,0,.254-.254v-7.177A4.648,4.648,0,0,0,213.644,613.83Z" transform="translate(-164.728 -608.583)" fill="#848484"/>
    </g>
    <g id="Grupo_23254" data-name="Grupo 23254" transform="translate(-1410.365 -22297)">
      <path id="Caminho_15190" data-name="Caminho 15190" d="M142.656,91.78l8.952-8.952a1.148,1.148,0,0,0,0-1.624l-2.523-2.523a1.148,1.148,0,0,0-1.624,0L135.315,90.828a1.346,1.346,0,0,0,0,1.9l12.146,12.146a1.148,1.148,0,0,0,1.624,0l2.523-2.523a1.148,1.148,0,0,0,0-1.624Z" transform="translate(-134.921 -78.346)" fill="url(#linear-gradient)"/>
      <path id="Caminho_15191" data-name="Caminho 15191" d="M142.283,121.35l.808-2.4-7.775,7.775a1.346,1.346,0,0,0,0,1.9l12.146,12.146a1.148,1.148,0,0,0,1.624,0l2.523-2.523a1.148,1.148,0,0,0,0-1.624l-7.59-7.73a7.4,7.4,0,0,1-1.741-2.846h0A7.4,7.4,0,0,1,142.283,121.35Z" transform="translate(-134.921 -114.241)" fill="#00ff5f"/>
    </g>
    <g id="Grupo_23255" data-name="Grupo 23255" transform="translate(-1257.388 -22297)">
      <path id="Caminho_15190-2" data-name="Caminho 15190" d="M144.209,91.78l-8.952-8.952a1.148,1.148,0,0,1,0-1.624l2.523-2.523a1.148,1.148,0,0,1,1.624,0L151.55,90.828a1.346,1.346,0,0,1,0,1.9L139.4,104.878a1.148,1.148,0,0,1-1.624,0l-2.523-2.523a1.148,1.148,0,0,1,0-1.624Z" transform="translate(-134.921 -78.346)" fill="url(#linear-gradient-2)"/>
      <path id="Caminho_15191-2" data-name="Caminho 15191" d="M144.582,121.35l-.808-2.4,7.775,7.775a1.346,1.346,0,0,1,0,1.9L139.4,140.773a1.148,1.148,0,0,1-1.624,0l-2.523-2.523a1.148,1.148,0,0,1,0-1.624l7.59-7.73a7.4,7.4,0,0,0,1.741-2.846h0A7.4,7.4,0,0,0,144.582,121.35Z" transform="translate(-134.921 -114.241)" fill="#00ff5f"/>
    </g>
  </g>
</svg>
