<?xml version="1.0" encoding="UTF-8" standalone="no"?>
<svg
   xmlns:dc="http://purl.org/dc/elements/1.1/"
   xmlns:cc="http://creativecommons.org/ns#"
   xmlns:rdf="http://www.w3.org/1999/02/22-rdf-syntax-ns#"
   xmlns:svg="http://www.w3.org/2000/svg"
   xmlns="http://www.w3.org/2000/svg"
   xmlns:sodipodi="http://sodipodi.sourceforge.net/DTD/sodipodi-0.dtd"
   xmlns:inkscape="http://www.inkscape.org/namespaces/inkscape"
   id="bold"
   enable-background="new 0 0 24 24"
   height="1024mm"
   viewBox="0 0 181.41734 181.41732"
   width="1024mm"
   version="1.1"
   sodipodi:docname="chatrace-square.svg"
   inkscape:version="1.0.2 (e86c870879, 2021-01-15, custom)"
   inkscape:export-filename="C:\xampp\htdocs\bots\images\new\icon100.png"
   inkscape:export-xdpi="2.4804688"
   inkscape:export-ydpi="2.4804688">
  <metadata
     id="metadata11">
    <rdf:RDF>
      <cc:Work
         rdf:about="">
        <dc:format>image/svg+xml</dc:format>
        <dc:type
           rdf:resource="http://purl.org/dc/dcmitype/StillImage" />
        <dc:title />
      </cc:Work>
    </rdf:RDF>
  </metadata>
  <defs
     id="defs9" />
  <sodipodi:namedview
     pagecolor="#ffffff"
     bordercolor="#666666"
     borderopacity="1"
     objecttolerance="10"
     gridtolerance="10"
     guidetolerance="10"
     inkscape:pageopacity="0"
     inkscape:pageshadow="2"
     inkscape:window-width="1414"
     inkscape:window-height="1030"
     id="namedview7"
     showgrid="false"
     inkscape:showpageshadow="false"
     showborder="true"
     inkscape:zoom="0.12129429"
     inkscape:cx="1948.5206"
     inkscape:cy="991.10731"
     inkscape:window-x="201"
     inkscape:window-y="108"
     inkscape:window-maximized="0"
     inkscape:current-layer="bold"
     inkscape:document-rotation="0"
     units="mm"
     width="1024mm" />
  <g
     id="g873"
     transform="matrix(5.0273647,0,0,5.0273647,28.254403,25.867915)">
    <path
       id="path2"
       style="fill:#2d8cfe;fill-opacity:1;stroke-width:0.999998"
       d="M 22.708869,-0.88637471 C 18.110787,-0.33175237 13.213568,2.7138092 10.360687,6.8283275 7.1597394,7.2794201 4.1959564,8.9750074 2.1759092,11.555006 c -0.1179377,0.148339 -0.1415998,0.351649 -0.061282,0.523201 0.081431,0.172426 0.2521399,0.283634 0.4420259,0.287718 l 3.8924611,0.08223 -0.4080871,0.58663 c -0.1517775,0.217937 -0.1065122,0.51566 0.1028274,0.679566 l 7.1565195,5.603297 c 0.108011,0.08457 0.24103,0.117766 0.369085,0.102177 0.118129,-0.01438 0.23115,-0.07052 0.315183,-0.16638 l 0.471597,-0.536904 1.013627,3.759066 c 0.04952,0.18336 0.213142,0.302448 0.398083,0.340377 0.04748,0.0093 0.09599,0.01054 0.14462,0.0046 0.14096,-0.01716 0.277394,-0.09627 0.364698,-0.206624 1.992146,-2.544367 2.927161,-5.828412 2.597174,-9.044102 3.365623,-3.8237031 5.171114,-9.4239022 4.497525,-14.05544637 -0.03909,-0.2632051 -0.278475,-0.45062792 -0.544366,-0.42531243 -0.07282,0.007544 -0.14575,0.0157011 -0.218735,0.024505 z" />
    <g
       id="g113"
       transform="matrix(0.02600587,-0.0030669,0.0030669,0.02600587,0.61718197,17.079278)"
       style="fill:#2d8cfe;fill-opacity:1">
      <g
         id="g56"
         style="fill:#2d8cfe;fill-opacity:1">
        <g
           id="g54"
           style="fill:#2d8cfe;fill-opacity:1">
          <path
             d="m 187.466,0 c -0.1,0 -0.3,0 -0.6,0 -101.2,0 -183.5,82.3 -183.5,183.5 0,41.3 14.1,81.4 39.9,113.7 l -26.7,62.1 c -2.2,5.1 0.2,11 5.2,13.1 1.8,0.8 3.8,1 5.7,0.7 l 97.9,-17.2 c 19.6,7.1 40.2,10.7 61,10.6 101.2,0 183.5,-82.3 183.5,-183.5 0.2,-100.9 -81.5,-182.9 -182.4,-183 z m -62.8,146.6 h 54 c 5.5,0 10,4.5 10,10 0,5.5 -4.5,10 -10,10 h -54 c -5.5,0 -10,-4.5 -10,-10 0,-5.5 4.5,-10 10,-10 z m 124,70 h -124 c -5.5,0 -10,-4.5 -10,-10 0,-5.5 4.5,-10 10,-10 h 124 c 5.5,0 10,4.5 10,10 0,5.5 -4.5,10 -10,10 z"
             id="path52"
             style="fill:#2d8cfe;fill-opacity:1" />
        </g>
      </g>
      <g
         id="g58"
         style="fill:#2d8cfe;fill-opacity:1" />
      <g
         id="g60"
         style="fill:#2d8cfe;fill-opacity:1" />
      <g
         id="g62"
         style="fill:#2d8cfe;fill-opacity:1" />
      <g
         id="g64"
         style="fill:#2d8cfe;fill-opacity:1" />
      <g
         id="g66"
         style="fill:#2d8cfe;fill-opacity:1" />
      <g
         id="g68"
         style="fill:#2d8cfe;fill-opacity:1" />
      <g
         id="g70"
         style="fill:#2d8cfe;fill-opacity:1" />
      <g
         id="g72"
         style="fill:#2d8cfe;fill-opacity:1" />
      <g
         id="g74"
         style="fill:#2d8cfe;fill-opacity:1" />
      <g
         id="g76"
         style="fill:#2d8cfe;fill-opacity:1" />
      <g
         id="g78"
         style="fill:#2d8cfe;fill-opacity:1" />
      <g
         id="g80"
         style="fill:#2d8cfe;fill-opacity:1" />
      <g
         id="g82"
         style="fill:#2d8cfe;fill-opacity:1" />
      <g
         id="g84"
         style="fill:#2d8cfe;fill-opacity:1" />
      <g
         id="g86"
         style="fill:#2d8cfe;fill-opacity:1" />
    </g>
  </g>
</svg>
